<?xml version="1.0" encoding="utf-8"?>
<!-- Generator: Adobe Illustrator 19.2.1, SVG Export Plug-In . SVG Version: 6.00 Build 0)  -->
<svg version="1.1" id="Layer_1" xmlns="http://www.w3.org/2000/svg" xmlns:xlink="http://www.w3.org/1999/xlink" x="0px" y="0px"
	 viewBox="0 0 219.2 40" style="enable-background:new 0 0 219.2 40;" xml:space="preserve">
<style type="text/css">
	.st0{clip-path:url(#SVGID_2_);}
	.st1{clip-path:url(#SVGID_4_);}
</style>
<g>
	<g>
		<defs>
			<rect id="SVGID_1_" width="219.2" height="40"/>
		</defs>
		<clipPath id="SVGID_2_">
			<use xlink:href="#SVGID_1_"  style="overflow:visible;"/>
		</clipPath>
		<path class="st0" d="M66.2,20.6c-3-0.7-3.7-1-3.7-2.2c0-1.2,1.1-1.8,3.2-1.8c1.7,0,3.2,0.5,4.6,1.5c0.1,0.1,0.2,0.1,0.2,0.1
			c0.1,0,0.2-0.1,0.2-0.1l1.6-2.7c0.1-0.1,0.1-0.3-0.1-0.4c-1.6-1.3-4.1-2-6.5-2c-4.6,0-7.5,2.2-7.5,5.7c0,2.9,1.9,4.5,6.6,5.5
			c3,0.7,3.8,1.2,3.8,2.3c0,1.8-2.4,1.9-3.5,1.9c-2.1,0-3.9-0.6-5.4-1.8c-0.1-0.1-0.2-0.1-0.3-0.1c-0.1,0-0.2,0.1-0.2,0.1l-1.7,2.8
			c-0.1,0.1-0.1,0.3,0.1,0.4c1.8,1.4,4.6,2.2,7.4,2.2c4.8,0,7.9-2.3,7.9-5.9C72.9,23.5,70.8,21.7,66.2,20.6"/>
		<path class="st0" d="M87.6,13c-3,0-4.9,1.2-5.8,2.1l-0.1-1.5c0-0.2-0.1-0.3-0.3-0.3H78c-0.2,0-0.3,0.1-0.3,0.3v26
			c0,0.2,0.1,0.3,0.3,0.3h3.7c0.2,0,0.3-0.1,0.3-0.3v-9.4c1.4,1.2,3.4,1.9,5.6,1.9c5.3,0,9.1-3.9,9.1-9.6C96.7,17,93,13,87.6,13
			 M86.9,16.7c3.2,0,5.4,2.4,5.4,5.9c0,3.5-2.2,5.9-5.4,5.9c-2.1,0-3.6-0.9-4.9-2.8v-6.1C83.3,17.6,84.9,16.7,86.9,16.7"/>
		<path class="st0" d="M118.5,13.4h-3.4c-0.2,0-0.3,0.1-0.3,0.3l-0.1,1.5c-1-1-2.8-2.1-5.8-2.1c-5.4,0-9.1,3.9-9.1,9.6
			c0,5.6,3.7,9.6,9.1,9.6c3,0,4.8-1.1,5.8-2.1l0.1,1.5c0,0.2,0.1,0.3,0.3,0.3h3.4c0.2,0,0.3-0.1,0.3-0.3V13.7
			C118.8,13.5,118.6,13.4,118.5,13.4 M109.5,28.5c-3.2,0-5.4-2.4-5.4-5.9c0-3.5,2.2-5.9,5.4-5.9c2.1,0,3.6,0.9,4.9,2.8v6.1
			C113.2,27.6,111.6,28.5,109.5,28.5"/>
		<path class="st0" d="M138.4,25.8c-0.1,0-0.2-0.1-0.2,0c-0.1,0-0.2,0.1-0.2,0.1c-0.6,1-2.1,2.6-4.6,2.6c-3.4,0-5.6-2.3-5.6-5.9
			c0-3.7,2.1-5.9,5.6-5.9c2.3,0,3.8,1.4,4.5,2.6c0,0.1,0.1,0.1,0.2,0.1c0.1,0,0.2,0,0.2-0.1l2.8-2c0.1-0.1,0.2-0.3,0.1-0.4
			c-1.9-2.6-4.5-4-7.9-4c-5.9,0-9.9,3.9-9.9,9.6c0,5.7,4,9.6,9.9,9.6c3.3,0,6.1-1.4,7.9-4c0.1-0.1,0.1-0.3-0.1-0.4L138.4,25.8z"/>
		<path class="st0" d="M153.1,13c-5.4,0-9.4,4-9.4,9.6c0,5.7,3.9,9.6,9.8,9.6c3.4,0,6-1.1,8-3.3c0.1-0.1,0.1-0.1,0.1-0.2
			c0-0.1-0.1-0.2-0.1-0.2l-2.6-2c-0.1-0.1-0.2-0.1-0.2-0.1c-0.1,0-0.2,0.1-0.2,0.1c-0.6,0.8-2.1,2.2-4.9,2.2c-3.3,0-5.2-1.5-5.4-4.4
			h13.6c0.2,0,0.3-0.1,0.3-0.3v-1.4C162,16.7,158.5,13,153.1,13 M153.1,16.6c2.7,0,4.3,1.5,4.6,4.1h-9.6
			C148.4,18.2,150.3,16.6,153.1,16.6"/>
		<path class="st0" d="M170.7,4.2H167c-0.2,0-0.3,0.1-0.3,0.3v27.1c0,0.2,0.1,0.3,0.3,0.3h3.7c0.2,0,0.3-0.1,0.3-0.3V4.5
			C171,4.3,170.8,4.2,170.7,4.2"/>
		<path class="st0" d="M194.3,13.4h-3.4c-0.2,0-0.3,0.1-0.3,0.3l-0.1,1.5c-1-1-2.8-2.1-5.8-2.1c-5.3,0-9.1,3.9-9.1,9.6
			c0,5.6,3.7,9.6,9.1,9.6c3,0,4.8-1.1,5.8-2.1l0.1,1.5c0,0.2,0.2,0.3,0.3,0.3h3.4c0.2,0,0.3-0.1,0.3-0.3V13.7
			C194.6,13.5,194.5,13.4,194.3,13.4 M185.4,28.5c-3.2,0-5.4-2.4-5.4-5.9c0-3.5,2.2-5.9,5.4-5.9c2.1,0,3.6,0.9,4.9,2.8v6.1
			C189,27.6,187.5,28.5,185.4,28.5"/>
		<path class="st0" d="M210.1,13c-2.2,0-4.2,0.7-5.6,1.9V4.5c0-0.2-0.1-0.3-0.3-0.3h-3.7c-0.2,0-0.3,0.1-0.3,0.3v27.1
			c0,0.2,0.1,0.3,0.3,0.3h3.4c0.2,0,0.3-0.1,0.3-0.3l0.1-1.5c1,1,2.8,2.1,5.8,2.1c5.4,0,9.1-3.9,9.1-9.6C219.2,17,215.5,13,210.1,13
			 M204.6,19.5c1.3-1.9,2.8-2.8,4.9-2.8c3.2,0,5.4,2.4,5.4,5.9c0,3.5-2.2,5.9-5.4,5.9c-2.1,0-3.6-0.9-4.9-2.8V19.5z"/>
	</g>
	<g>
		<defs>
			<rect id="SVGID_3_" width="32.6" height="32.2"/>
		</defs>
		<clipPath id="SVGID_4_">
			<use xlink:href="#SVGID_3_"  style="overflow:visible;"/>
		</clipPath>
		<path class="st1" d="M26.4,13H13.6v6.2H22h4.4v6.2H22h-8.4v6.2h12.9c3.4,0,6.2-2.8,6.2-6.2v-6.2C32.6,15.8,29.9,13,26.4,13"/>
		<path class="st1" d="M1,6.7v5.8l0,0c0,0.2,0,0.3,0,0.5c0,3.4,2.8,6.2,6.2,6.2l0,0v-8.4v-4V6.7h6.3V0.5H7.2C3.8,0.5,1,3.3,1,6.7"/>
	</g>
</g>
</svg>
